<svg width="55" height="44" viewBox="0 0 55 44" fill="none" xmlns="http://www.w3.org/2000/svg">
<g clip-path="url(#clip0_221_161)">
<path d="M18.9181 8.68628C18.9181 7.97782 18.5645 7.31201 17.9176 6.80714C16.666 5.83868 14.3451 5.83593 13.0953 6.80989L1.66543 15.7062C1.03083 16.2001 0.666687 16.8838 0.666687 17.5826C0.666687 18.2815 1.03083 18.9652 1.66543 19.459L13.0988 28.3581C13.744 28.8561 14.5996 29.1326 15.5064 29.1326C16.4133 29.1326 17.2688 28.8575 17.9211 28.354C18.5628 27.8532 18.9163 27.1861 18.9163 26.479C18.9163 25.7719 18.5628 25.1047 17.9176 24.6026L8.89881 17.584L17.9193 10.5654C18.5628 10.0633 18.9181 9.39749 18.9181 8.68628Z" fill="white"/>
<path d="M53.418 15.7062L41.9864 6.80988C40.7402 5.83729 38.4192 5.83592 37.1624 6.80988C36.5189 7.31062 36.1654 7.97781 36.1654 8.68627C36.1654 9.39886 36.5207 10.066 37.1624 10.5627L46.1829 17.5826L37.1624 24.6012C36.5189 25.1019 36.1654 25.7691 36.1654 26.4776C36.1654 27.186 36.5189 27.8532 37.1659 28.3567C37.8111 28.8561 38.6684 29.1312 39.5753 29.1312C40.4821 29.1312 41.3394 28.8561 41.9846 28.3553L53.4163 19.459C54.0509 18.9651 54.415 18.2814 54.415 17.5826C54.415 16.8838 54.0526 16.2001 53.418 15.7062Z" fill="white"/>
<path d="M33.2363 0.426793C31.2742 0.0127212 29.1017 1.01832 28.5979 2.53842L19.0683 31.141C18.5433 32.7134 19.763 34.327 21.7853 34.7397C22.0946 34.8016 22.4128 34.8332 22.738 34.8332C24.4686 34.8332 25.9764 33.9239 26.4078 32.6226L35.9373 4.02C36.1937 3.25651 36.0487 2.46276 35.5361 1.78594C35.0235 1.10499 34.2015 0.622135 33.2363 0.426793Z" fill="white"/>
</g>
<defs>
<clipPath id="clip0_221_161">
<rect width="53.75" height="43.125" fill="white" transform="translate(0.666687 0.333313)"/>
</clipPath>
</defs>
</svg>
